<svg width="90" height="74" viewBox="0 0 90 74" fill="none" xmlns="http://www.w3.org/2000/svg">
<g id="Vector">
<path d="M17.3861 23.7677C17.3861 17.2054 12.0258 11.8839 5.41554 11.8839C12.0258 11.8839 17.3861 6.56235 17.3861 0C17.3861 6.56235 22.7465 11.8839 29.3567 11.8839C22.7465 11.8839 17.3861 17.2054 17.3861 23.7677Z" fill="#00913E"/>
<path d="M88.1666 45.1125C87.1431 46.5682 85.8538 47.2489 84.0889 46.7864C82.2912 46.3142 81.3857 45.0604 81.1495 43.2757C81.0774 42.7383 81.0019 42.2009 80.9265 41.6636C80.2638 36.8762 79.6044 32.092 78.945 27.3046C78.7121 25.6208 77.8067 24.4907 76.1271 24.0999C74.5131 23.7254 73.2402 24.3344 72.2757 25.6404C71.9838 26.0344 71.6852 26.422 71.3867 26.8096C66.1084 33.665 60.8497 40.5367 55.532 47.3629C54.9218 48.1478 54.1082 48.9587 53.2127 49.3007C50.9655 50.1572 48.843 48.6493 48.4625 46.0309C47.7965 41.4649 47.1765 36.8924 46.5795 32.3167C46.3465 30.5125 45.7265 29.0339 43.7877 28.5291C41.8621 28.0276 40.5203 28.9102 39.4968 30.4539C39.3459 30.6818 39.1688 30.8903 39.008 31.1052C33.3229 38.6641 27.6312 46.2198 21.9592 53.7885L24.9543 31.3951C25.22 29.4084 23.8127 27.5814 21.8116 27.3176L16.484 26.6141C10.4741 25.8228 4.95299 30.0174 4.15582 35.9871L0.0322146 66.7829C-0.233507 68.7695 1.17383 70.5965 3.17495 70.8603L8.50251 71.5638C14.5124 72.3552 20.0335 68.1605 20.8307 62.1909L21.6213 56.2799C22.1363 55.5927 22.6547 54.9088 23.1664 54.2216C24.2949 52.717 25.5546 51.6488 27.5787 52.2155C29.5044 52.7561 30.0981 54.2444 30.3311 56.0389C30.9084 60.5071 31.5514 64.9656 32.155 69.4339C32.3879 71.1697 33.0408 72.5962 34.9008 73.088C36.8068 73.5928 38.1453 72.7427 39.2573 71.2609C41.5078 68.2549 43.8074 65.288 46.0907 62.3081C49.4335 57.9441 52.7764 53.5833 56.1258 49.2257C57.1132 47.9426 58.4057 47.3922 60.0165 47.7863C61.5616 48.164 62.4244 49.1997 62.7229 50.7239C62.8279 51.2547 62.9066 51.7921 62.9788 52.3294C63.6513 57.2243 64.3271 62.116 64.9897 67.0108C65.2194 68.7174 65.9739 70.0038 67.7618 70.4402C69.4545 70.8538 70.7372 70.2025 71.7509 68.8574C77.5475 61.1682 83.3606 53.4888 89.1376 45.7834C89.4066 45.4251 89.3902 44.8585 89.5083 44.3895C89.0523 44.624 88.4257 44.7412 88.1666 45.1092V45.1125Z" fill="#00913E"/>
</g>
</svg>
