<svg width="56" height="56" viewBox="0 0 56 56" fill="none" xmlns="http://www.w3.org/2000/svg">
<g id="Vector">
<path d="M4.70165 17.8871C4.91457 17.4341 5.12975 16.9859 5.33592 16.535C6.13214 14.7945 6.91486 13.0493 7.936 11.4064C9.02086 9.66043 10.2617 8.02945 11.9501 6.73651C12.4666 6.34131 13.0244 5.98863 13.5882 5.65268C14.0426 5.38224 14.269 5.44218 14.5891 5.85062C14.8306 6.1587 15.0427 6.48629 15.2826 6.79506C15.5773 7.17423 15.7377 7.18887 16.1126 6.8787C16.7191 6.37686 17.2949 5.83878 17.9277 5.3676C19.5359 4.17155 21.3765 3.4174 23.364 2.93716C25.1394 2.50851 26.7671 1.79199 28.1301 0.619634C28.376 0.408443 28.6092 0.184705 28.8116 0C29.1932 0.331772 29.5718 0.671909 29.9632 0.999499C31.0465 1.9056 32.2799 2.60539 33.5672 3.22572C35.2278 4.02588 36.905 4.79537 38.5536 5.61643C39.3004 5.98863 39.9939 6.45283 40.7106 6.87661C40.8051 6.93237 40.8913 6.99928 40.9843 7.05644C41.2257 7.20281 41.4176 7.19793 41.635 7.0174C41.8015 6.8794 41.9432 6.7163 42.1059 6.57341C42.4515 6.27022 42.8331 6.04021 43.3422 6.10294C43.7178 6.14964 44.0252 6.33434 44.2516 6.59223C44.7869 7.2042 45.317 7.82383 45.8021 8.47065C47.474 10.6997 48.8467 13.0883 50.1025 15.5375C50.4587 16.2311 50.8275 16.919 51.1904 17.6097C51.3951 17.9993 51.6275 18.0558 51.9994 17.7847C52.3098 17.5581 52.5999 17.3079 52.9088 17.0786C53.022 16.995 53.1622 16.9427 53.3279 16.8563C53.5955 17.379 53.864 17.8718 54.1031 18.3771C54.8731 20.0067 55.3469 21.7102 55.5081 23.4834C55.7068 25.6678 55.4271 27.8096 54.7824 29.9146C54.6752 30.2659 54.5882 30.6255 54.5357 30.9873C54.4825 31.3532 54.6902 31.6083 55.0418 31.7637C55.1085 31.7937 55.176 31.8278 55.248 31.8418C55.8238 31.9533 56.0037 32.2488 55.9999 32.8594C55.9962 33.4818 55.8253 34.0792 55.5831 34.657C54.4015 37.4777 52.8361 40.0985 50.8448 42.4961C50.6521 42.7275 50.4212 42.9422 50.1723 43.1214C49.2328 43.7954 48.6893 44.7022 48.3654 45.7344C48.1285 46.4907 47.9673 47.2692 47.7116 48.0192C47.0061 50.0879 45.5427 51.4129 43.2282 51.8854C41.9214 52.1524 40.8688 52.8215 39.9849 53.7353C39.0252 54.7271 37.8691 55.4109 36.4551 55.6904C35.2121 55.9357 33.981 55.8284 32.7567 55.5642C31.4814 55.2889 30.2113 54.9927 28.9293 54.7473C27.8302 54.5361 26.7138 54.5563 25.6192 54.7759C24.6536 54.9697 23.7119 55.2652 22.7485 55.4673C21.7768 55.6716 20.7977 55.8716 19.8103 55.9734C18.5357 56.1051 17.3699 55.7433 16.3668 55.0024C15.614 54.4462 14.8965 53.8489 14.167 53.2655C13.3618 52.6215 12.4546 52.1733 11.4133 51.9496C10.5811 51.7711 9.82083 51.4435 9.20155 50.8755C8.6325 50.3534 8.34011 49.708 8.21115 48.9852C7.89027 47.1856 7.16977 45.526 6.16213 43.9675C5.48437 42.9185 4.6799 41.9567 3.8582 41.0039C2.5709 39.5116 1.66073 37.8283 0.998711 36.0231C0.569863 34.8549 0.257973 33.6596 0.0285549 32.4454C-0.0119308 32.2307 -0.00818209 31.9986 0.0323035 31.7839C0.106527 31.3894 0.462651 31.1434 0.974719 31.0834C1.09318 31.0695 1.21163 31.057 1.32784 31.0333C1.74695 30.9482 1.93138 30.7043 1.82417 30.3181C1.67572 29.7821 1.49803 29.2538 1.32934 28.7227C1.0317 27.7859 0.740052 26.8436 0.659081 25.8685C0.592355 25.0683 0.57736 24.2605 0.60585 23.4576C0.649335 22.2357 0.839017 21.025 1.32035 19.8806C1.60075 19.2128 1.98236 18.5813 2.32349 17.9359C2.36922 17.8502 2.4382 17.7735 2.50343 17.6982C2.8618 17.2898 3.20818 17.202 3.72699 17.4174C4.05163 17.5519 4.36052 17.7199 4.70165 17.8843V17.8871ZM5.23771 20.9665C5.16123 20.901 5.1065 20.8459 5.04278 20.8006C4.73014 20.5783 4.42949 20.3385 4.09736 20.1454C3.86269 20.0088 3.64602 20.0708 3.49682 20.2883C3.36637 20.4786 3.25391 20.6877 3.17894 20.9024C2.81981 21.9325 2.57915 22.9857 2.49143 24.0688C2.40596 25.1255 2.42321 26.178 2.68036 27.2109C2.8663 27.9574 3.11971 28.6899 3.35587 29.4253C3.60928 30.2143 3.87244 31.0005 4.14309 31.7846C4.23531 32.0516 4.20457 32.131 3.91068 32.2363C3.61228 32.3429 3.31014 32.4454 3.02299 32.575C2.52817 32.7981 2.38347 33.088 2.47944 33.5933C2.66087 34.5441 2.96676 35.4613 3.33713 36.3611C4.25555 38.5936 5.63731 40.5529 7.39994 42.2843C8.35735 43.2252 9.00362 44.307 9.23304 45.595C9.3395 46.1951 9.43697 46.7987 9.58241 47.3912C9.88681 48.6353 10.6658 49.5205 11.9711 49.9617C12.4801 50.1339 13.0042 50.2726 13.5298 50.396C14.0081 50.5089 14.4782 50.6225 14.7653 51.0344C15.4004 51.9454 16.2933 52.5741 17.2927 53.101C17.8932 53.4174 18.475 53.4384 19.1048 53.1721C19.7953 52.8801 20.4985 52.6082 21.213 52.3699C23.7524 51.5216 26.3712 51.185 29.062 51.4052C30.8981 51.5558 32.6675 51.9809 34.3754 52.6257C35.0239 52.8703 35.6559 53.1603 36.3202 53.3589C37.6172 53.7464 38.6646 53.4237 39.4743 52.4096C39.7337 52.0841 39.9271 51.7105 40.1288 51.3488C40.4467 50.7772 40.8861 50.3757 41.6193 50.3353C41.7895 50.3256 41.9597 50.3005 42.1284 50.2747C43.4366 50.0718 44.5223 49.5289 45.2698 48.4792C45.7503 47.8038 46.0217 47.0517 46.1777 46.262C46.4723 44.7698 47.0894 43.4197 48.2394 42.3219C49.0979 41.5029 49.8334 40.5989 50.5276 39.6614C51.3861 38.5016 52.2468 37.3439 52.8646 36.0496C53.2162 35.3129 53.5093 34.5559 53.6075 33.7516C53.693 33.0511 53.5356 32.8929 52.7738 32.8113C52.1576 32.7451 51.9784 32.5088 52.1403 31.9526C52.2243 31.6661 52.3322 31.3853 52.4282 31.1016C53.0025 29.4051 53.4066 27.6765 53.5056 25.8964C53.5821 24.5184 53.4464 23.1558 53.091 21.8147C53.004 21.4857 52.9133 21.1561 52.7903 20.8382C52.6374 20.4416 52.3885 20.3322 51.9694 20.4786C51.6567 20.588 51.3613 20.7393 51.0584 20.8731C50.9602 20.917 50.865 20.9658 50.7601 21.016C50.7196 20.9393 50.6896 20.8842 50.6603 20.8292C49.9578 19.4833 49.2756 18.1283 48.5483 16.7942C47.6352 15.1193 46.6897 13.4591 45.7496 11.7974C45.3852 11.1541 45.0268 10.5052 44.6055 9.89393C44.3648 9.54473 44.0289 9.24223 43.6901 8.96622C43.4134 8.74109 43.1555 8.82403 43.0243 9.14674C42.9223 9.39697 42.8624 9.66322 42.8024 9.92669C42.7297 10.2466 42.6772 10.5707 42.6104 10.9241C42.5287 10.8523 42.48 10.8119 42.4335 10.7687C41.5023 9.90438 40.4962 9.12235 39.4233 8.41489C37.4493 7.11359 35.311 6.0883 33.1016 5.18917C31.6096 4.58208 30.1866 3.88439 29.026 2.79288C28.8026 2.58309 28.6212 2.59772 28.292 2.74549C26.4724 3.55889 24.6626 4.39389 22.8242 5.16896C21.0638 5.91126 19.3754 6.75951 17.87 7.88935C16.8893 8.62469 15.9589 9.41718 15.0052 10.1825C14.7548 10.3832 14.5007 10.5791 14.2098 10.807C14.2098 10.2341 14.2225 9.7148 14.2038 9.19693C14.1955 8.97946 14.146 8.75572 14.0681 8.55081C13.9166 8.15282 13.5897 8.03293 13.2029 8.2497C12.9457 8.39398 12.6901 8.57311 12.5026 8.78848C11.8031 9.59003 11.0909 10.3867 10.4581 11.2336C8.80644 13.4458 7.5169 15.8435 6.3968 18.3214C6.00468 19.1891 5.63357 20.0646 5.23921 20.9693L5.23771 20.9665Z" fill="#0D5239"/>
<path d="M15.7145 16.6827C16.1508 16.2973 16.5332 15.9592 16.9163 15.6212C17.9727 14.6893 19.0418 13.7693 20.2969 13.0695C21.7356 12.2672 23.1893 11.4887 24.6393 10.7045C25.7542 10.1016 26.8728 9.5057 27.9906 8.90697C28.0873 8.8554 28.1848 8.80312 28.2868 8.75991C28.469 8.68393 28.6459 8.69299 28.7651 8.8554C29.3641 9.67158 30.2488 10.1407 31.1628 10.5777C32.8879 11.4022 34.4766 12.4213 35.9835 13.549C37.6217 14.775 39.2396 16.0247 40.8666 17.2633C40.8951 17.2849 40.9288 17.301 40.9595 17.3198C40.955 17.3407 40.9513 17.3616 40.9468 17.3825C40.7923 17.4062 40.6386 17.4424 40.4834 17.4508C40.2525 17.4634 40.0209 17.4473 39.7899 17.4585C39.5838 17.4682 39.3843 17.5114 39.3004 17.7219C39.2141 17.9366 39.2479 18.1429 39.4263 18.2977C39.5658 18.4182 39.7397 18.5047 39.9032 18.6002C40.1671 18.7542 40.4325 18.9068 40.7016 19.0539C40.8741 19.148 41.045 19.2637 41.2332 19.3111C42.6862 19.677 43.7238 20.5329 44.4818 21.7011C44.9744 22.4602 45.4189 23.2457 45.8725 24.0263C45.928 24.1218 45.9063 24.257 45.9265 24.425C45.5509 24.271 45.2413 24.1399 44.9271 24.0166C44.5433 23.866 44.1564 23.7196 43.7695 23.5767C43.6023 23.5147 43.4367 23.5022 43.2897 23.6318C43.1338 23.7698 43.1248 23.9406 43.1817 24.1127C43.2222 24.2368 43.2845 24.3602 43.3624 24.4675C44.0477 25.4078 44.7262 26.3529 45.4324 27.2799C45.934 27.9386 46.3441 28.6258 46.4978 29.4302C46.6005 29.9703 46.5405 30.5035 46.4723 31.043C46.4138 31.501 46.4183 31.9672 46.4108 32.4294C46.4019 33.003 46.4086 33.5766 46.4086 34.1886C46.3411 34.1377 46.2909 34.1056 46.2482 34.0659C45.9423 33.7815 45.6394 33.4944 45.332 33.2121C45.242 33.1298 45.1453 33.0518 45.0426 32.9835C44.8207 32.8371 44.58 32.7855 44.3296 32.9152C44.0829 33.0427 44.0657 33.2672 44.0709 33.4951C44.0874 34.1774 44.3011 34.8131 44.5762 35.4404C45.0223 36.4559 44.8784 37.415 44.1601 38.2814C42.7574 39.9744 41.2624 41.5963 39.6872 43.1527C38.6961 44.132 37.6562 45.0695 36.6681 46.0515C36.0885 46.628 35.4167 46.7472 34.6168 46.6315C33.3152 46.4433 32.0107 46.2683 30.7009 46.1422C29.6123 46.0376 28.5162 45.9798 27.4216 45.9568C25.4685 45.9149 23.5432 46.1603 21.6344 46.5276C21.3285 46.5861 21.0211 46.637 20.713 46.6851C20.1207 46.7778 19.6506 46.5764 19.2652 46.1645C18.2178 45.0444 17.1682 43.9271 16.1193 42.8084C15.0457 41.6639 13.9699 40.5208 12.9007 39.3729C12.4779 38.9191 12.1323 38.4194 11.9351 37.8409C11.6359 36.9592 11.7724 36.1186 12.2905 35.3491C12.6556 34.8068 12.7703 34.206 12.9 33.6045C12.9637 33.3111 12.7845 33.0378 12.4936 32.9047C12.226 32.782 11.9201 32.8183 11.7049 33.0636C11.4043 33.4066 11.1441 33.7801 10.8697 34.1426C10.7557 34.2938 10.65 34.45 10.5406 34.604C10.5166 34.604 10.4926 34.6026 10.4686 34.6019C10.4041 34.3587 10.3134 34.1182 10.2782 33.8708C10.072 32.4091 9.9123 30.9413 9.67238 29.4845C9.46246 28.2139 9.93554 27.2297 10.9169 26.3829C11.6599 25.7416 12.3669 25.0641 13.0837 24.3971C13.2036 24.2856 13.3078 24.1546 13.3971 24.02C13.5148 23.8423 13.5343 23.652 13.3843 23.4764C13.2404 23.307 13.0379 23.2401 12.8243 23.3035C12.5064 23.3976 12.1945 23.5126 11.8908 23.6416C11.5055 23.8047 11.1321 23.9908 10.692 24.195C10.8307 23.7817 10.9439 23.4206 11.0736 23.0638C11.4058 22.1479 11.8331 21.2746 12.3984 20.4591C12.6946 20.0325 13.0927 19.746 13.583 19.546C14.5929 19.1341 15.6043 18.7263 16.6044 18.2949C16.8473 18.1903 17.0865 18.0321 17.2597 17.8439C17.6241 17.4473 17.4434 17.0382 16.8946 16.9552C16.6599 16.9197 16.4185 16.9155 16.1861 16.8695C16.0376 16.8402 15.9012 16.7594 15.7145 16.6834V16.6827ZM28.0843 45.3434L28.0933 45.4019C28.9938 45.2995 29.9055 45.25 30.7924 45.0848C34.1107 44.4659 36.89 42.9241 39.1692 40.6296C42.0324 37.7475 43.3647 34.2701 43.5686 30.3899C43.6211 29.3918 43.5514 28.3965 43.4067 27.4047C43.1855 25.8859 42.7611 24.4201 42.0931 23.0212C40.5307 19.7509 38.0543 17.2522 34.6445 15.5919C31.6981 14.1575 28.5739 13.7609 25.3201 14.4405C22.1787 15.0963 19.5389 16.5963 17.3264 18.7396C14.4602 21.515 13.0529 24.878 12.8558 28.6962C12.8003 29.764 12.879 30.829 13.0184 31.8906C13.1984 33.2644 13.5245 34.6047 14.0838 35.8879C15.3629 38.8257 17.3946 41.2178 20.1979 43.021C22.5648 44.5432 25.1994 45.3253 28.0858 45.3441L28.0843 45.3434Z" fill="#0D5239"/>
<path d="M14.2915 15.6505C13.9931 14.5694 14.0553 13.5804 14.7878 12.7265C15.1987 12.2484 15.698 11.8302 16.1913 11.4197C18.2171 9.73431 20.4033 8.25667 22.8445 7.12962C23.6774 6.74488 24.5501 6.43541 25.3951 6.07297C25.8606 5.87363 26.3082 5.63804 26.7633 5.41779C27.1127 5.24772 27.4523 5.05674 27.8114 4.90828C28.3722 4.67688 28.9248 4.72985 29.4204 5.06789C29.811 5.33345 30.1686 5.64152 30.56 5.90569C30.8719 6.11618 31.1942 6.32737 31.5429 6.47305C34.9677 7.90817 38.0243 9.85559 40.8006 12.1933C41.4544 12.744 42.0099 13.3622 42.2333 14.1854C42.3983 14.7924 42.4485 15.4086 42.4388 16.0784C42.0864 15.7961 41.764 15.5445 41.4484 15.2845C40.2765 14.3192 39.1219 13.3343 37.9329 12.3871C35.9123 10.777 33.7029 9.43391 31.2745 8.40932C30.5135 8.088 29.859 7.61613 29.2247 7.11847C29.1392 7.05156 29.053 6.98465 28.9623 6.92401C28.5762 6.66681 28.1661 6.62569 27.7417 6.83061C25.6462 7.84405 23.544 8.84703 21.4597 9.87999C19.8013 10.7018 18.3543 11.796 17.019 13.0151C16.1628 13.7971 15.3456 14.6161 14.5112 15.4191C14.4452 15.4825 14.3845 15.5501 14.2907 15.6477L14.2915 15.6505Z" fill="#0D5239"/>
<path d="M5.39365 35.7304C6.75892 36.1242 7.99148 36.6664 8.98038 37.5753C9.66714 38.2068 10.2879 38.9045 10.9019 39.6001C13.0109 41.9901 15.105 44.3927 17.2027 46.7918C17.3054 46.9096 17.4021 47.0357 17.4764 47.1702C17.5798 47.3598 17.5311 47.479 17.3377 47.5891C17.2934 47.6142 17.2477 47.64 17.1982 47.6553C16.33 47.9251 15.4731 48.2304 14.5906 48.452C13.3341 48.7678 12.4531 48.4088 11.7409 47.3905C11.1756 46.582 10.8967 45.6821 10.764 44.7412C10.6433 43.886 10.4626 43.0572 9.87031 42.3616C9.49095 41.9162 9.08384 41.4911 8.70448 41.045C7.36395 39.4705 6.29108 37.7489 5.44988 35.9011C5.43039 35.8586 5.42064 35.8126 5.39365 35.7304Z" fill="#0D5239"/>
<path d="M37.6165 47.785C38.3377 47.0761 39.0575 46.4189 39.7142 45.7121C40.9955 44.3327 42.2513 42.9325 43.4996 41.5273C44.7479 40.1215 45.961 38.6884 47.2146 37.2861C48.112 36.2817 49.2553 35.5944 50.5914 35.1881C50.6236 35.1783 50.6581 35.1748 50.7653 35.1553C50.5509 35.7673 50.3777 36.3451 50.1483 36.9027C49.4825 38.5191 48.4006 39.8698 47.0549 41.0533C46.0652 41.9239 45.2772 42.9227 44.9699 44.1878C44.8799 44.5579 44.8589 44.9426 44.7637 45.3113C44.5118 46.285 43.9705 47.1207 43.2252 47.8289C42.4927 48.5245 41.5526 48.7078 40.5434 48.5817C39.535 48.4555 38.6016 48.0756 37.6157 47.7857L37.6165 47.785Z" fill="#0D5239"/>
<path d="M48.139 33.8498C48.1607 33.3968 48.1787 32.9626 48.2035 32.5283C48.2582 31.5602 48.3092 30.5914 48.3736 29.6232C48.4291 28.7875 48.4449 27.9449 48.5783 27.1196C48.7523 26.0462 49.3438 25.1332 50.083 24.3079C50.4444 23.905 50.838 23.5273 51.2174 23.1376C51.2406 23.1432 51.2639 23.1481 51.2871 23.1537C51.3531 23.5022 51.4311 23.8493 51.4843 24.1999C51.7789 26.1431 51.5278 28.0494 51.0247 29.939C50.826 30.6841 50.6678 31.4389 50.4504 32.1784C50.1513 33.1975 49.3393 33.7028 48.2664 33.8568C48.2379 33.861 48.208 33.854 48.1397 33.8505L48.139 33.8498Z" fill="#0D5239"/>
<path d="M12.3797 12.4157C12.5476 13.3044 12.5439 14.1847 12.2327 15.0538C11.501 17.1002 10.5646 19.0685 9.60791 21.0292C9.09359 22.0824 8.57852 23.1349 8.0627 24.1873C8.03871 24.2361 8.01247 24.2842 7.97424 24.3567C7.45317 23.9427 7.04307 23.4861 6.90661 22.8567C6.78966 22.3159 6.92836 21.8071 7.16677 21.3233C8.00272 19.6234 8.81619 17.9122 9.70762 16.238C10.2849 15.1542 10.9724 14.1198 11.6359 13.0778C11.8054 12.8123 12.0723 12.6004 12.2942 12.3634C12.3227 12.3808 12.3504 12.3983 12.3789 12.4157H12.3797Z" fill="#0D5239"/>
<path d="M4.37476 23.0498C4.74813 23.3509 5.14249 23.6325 5.49037 23.9566C6.18087 24.5993 6.5265 25.4092 6.74992 26.2818C7.16752 27.9128 7.49516 29.5577 7.69758 31.2228C7.81529 32.1924 7.91876 33.164 8.01997 34.1356C8.03646 34.2917 8.01622 34.4528 7.99223 34.6089C7.98098 34.6807 7.91951 34.7462 7.85803 34.8535C7.69009 34.6444 7.54914 34.4771 7.41718 34.3036C6.05567 32.5081 5.20922 30.5133 4.76013 28.3651C4.40325 26.6575 4.29754 24.931 4.31328 23.1948C4.31328 23.162 4.31778 23.13 4.32003 23.0972C4.33803 23.0819 4.35602 23.0658 4.37401 23.0505L4.37476 23.0498Z" fill="#0D5239"/>
<path d="M44.43 13.2904C44.7292 13.5176 44.9879 13.7867 45.1588 14.1087C45.4947 14.7416 45.8111 15.3842 46.1199 16.0289C47.0114 17.8885 47.8961 19.7516 48.78 21.6147C48.861 21.7848 48.9157 21.966 48.9772 22.143C49.0896 22.4657 48.9929 22.7522 48.7568 22.9892C48.4689 23.2777 48.1577 23.5461 47.8278 23.8493C47.7289 23.6736 47.6457 23.5307 47.5662 23.3858C46.7745 21.9416 46.0187 20.4828 45.4354 18.9515C44.9316 17.6278 44.58 16.2722 44.4398 14.874C44.3881 14.3575 44.3903 13.8369 44.3671 13.3176C44.3881 13.3092 44.4083 13.3002 44.4293 13.2918L44.43 13.2904Z" fill="#0D5239"/>
<path d="M20.6627 48.5782C20.7879 48.5398 20.8914 48.5085 21.0144 48.4701C21.336 49.3797 21.6516 50.2712 21.9658 51.1585C21.7476 51.3 21.5842 51.2944 21.381 51.1341C20.7954 50.6727 20.1874 50.2356 19.5876 49.7903C19.5366 49.7519 19.4797 49.7199 19.3762 49.7066C19.6124 50.3813 19.8493 51.0553 20.0929 51.7509C19.976 51.7879 19.8673 51.822 19.7391 51.8617C19.4159 50.9501 19.101 50.06 18.7861 49.1727C19.0013 49.0466 19.1633 49.041 19.3627 49.1971C19.961 49.6662 20.5803 50.1116 21.1928 50.566C21.2423 50.603 21.297 50.6329 21.3892 50.6434C21.1501 49.9638 20.9109 49.2835 20.6627 48.5789V48.5782Z" fill="#0D5239"/>
<path d="M29.2727 50.2405C28.9046 50.2015 28.9076 50.2022 28.972 49.8941C29.1265 49.1476 29.2772 48.4011 29.4309 47.6539C29.4474 47.5738 29.4706 47.4943 29.4983 47.3884C30.0052 47.495 30.5277 47.4943 30.9866 47.7299C31.291 47.8861 31.4102 48.1453 31.3802 48.4646C31.3509 48.7789 31.1927 49.0138 30.8794 49.149C30.8066 49.1804 30.7309 49.2062 30.6304 49.2445C30.7789 49.6759 30.9243 50.0997 31.0713 50.5263C30.7452 50.5646 30.6972 50.5388 30.6132 50.2865C30.5135 49.9896 30.4145 49.6927 30.3178 49.3951C30.2833 49.2891 30.2376 49.2145 30.0966 49.202C29.9129 49.1853 29.7323 49.1407 29.5223 49.103C29.4369 49.4926 29.3544 49.8669 29.2727 50.2391V50.2405ZM30.9978 48.3928C31.0128 48.1467 30.8914 47.9697 30.6477 47.8958C30.4093 47.8233 30.1581 47.7829 29.91 47.7418C29.8717 47.7355 29.7877 47.7927 29.7787 47.8317C29.7098 48.1216 29.6483 48.413 29.5996 48.7064C29.5921 48.7503 29.655 48.8396 29.7 48.8493C29.9167 48.8967 30.1371 48.9406 30.3583 48.9546C30.7452 48.9796 30.9956 48.7496 30.9986 48.3928H30.9978Z" fill="#0D5239"/>
<path d="M25.5353 48.2638C25.41 48.2896 25.3096 48.3105 25.2009 48.3328C25.1761 48.2994 25.1506 48.2659 25.1274 48.2318C24.9325 47.9432 24.6858 47.8386 24.3552 47.9063C23.9578 47.9878 23.7149 48.2011 23.6864 48.5343C23.6474 48.9838 23.7231 49.4215 23.9571 49.8202C24.3042 50.412 24.9909 50.3409 25.4093 50.0258C25.476 49.9757 25.509 49.8481 25.5015 49.7603C25.488 49.5972 25.4333 49.4369 25.3891 49.2452C25.1566 49.2835 24.9347 49.3212 24.7165 49.3574C24.6011 49.1163 24.6048 49.11 24.85 49.0619C25.1184 49.0089 25.3868 48.9552 25.6919 48.8946C25.7684 49.2333 25.8674 49.5588 25.9019 49.8899C25.9124 49.9924 25.7744 50.1415 25.6627 50.2175C24.7795 50.8197 23.7179 50.5925 23.4307 49.5351C23.331 49.1664 23.2336 48.7963 23.3408 48.4095C23.4637 47.9676 23.8566 47.6742 24.4234 47.6135C24.8942 47.5633 25.2871 47.7571 25.4925 48.1418C25.5083 48.1718 25.5158 48.206 25.5353 48.2631V48.2638Z" fill="#0D5239"/>
<path d="M32.3466 50.9556C32.7814 50.4845 33.2028 50.0272 33.6241 49.5707C33.8768 49.2975 34.1242 49.0201 34.3866 48.7559C34.4346 48.7078 34.5598 48.6834 34.6265 48.7064C34.6955 48.7301 34.781 48.8221 34.7832 48.8869C34.8147 49.8216 34.8335 50.7563 34.8537 51.6917C34.8537 51.7237 34.841 51.7558 34.8342 51.7879C34.6063 51.7507 34.4923 51.6368 34.4923 51.4463C34.4923 51.0741 34.3021 50.8253 33.9218 50.6998C33.7606 50.6462 33.5941 50.603 33.4404 50.5347C33.2883 50.467 33.1938 50.5047 33.1053 50.6253C33.0386 50.7166 32.9561 50.7981 32.8796 50.8832C32.7422 51.037 32.5645 51.0616 32.3466 50.957V50.9556ZM34.4713 49.1727C34.4563 49.1664 34.4413 49.1595 34.4263 49.1532C34.1092 49.5087 33.7921 49.8634 33.4517 50.2454C33.8146 50.3646 34.1355 50.4698 34.4713 50.58V49.1727Z" fill="#0D5239"/>
<path d="M28.5065 49.8669V50.1506H26.5984C26.5901 50.0628 26.5714 49.9422 26.5676 49.8209C26.5451 49.0591 26.5302 48.298 26.5032 47.5362C26.4979 47.3975 26.5332 47.3236 26.6906 47.3236C27.2559 47.3236 27.8212 47.3236 28.4052 47.3236V47.5578C28.0049 47.5689 27.5978 47.5822 27.1907 47.5905C26.872 47.5975 26.8735 47.5968 26.8848 47.8979C26.8923 48.1105 26.8863 48.3238 26.8863 48.5517H28.2163C28.2965 48.7838 28.2725 48.8145 28.0041 48.8207C27.7065 48.8277 27.4088 48.8388 27.1112 48.8416C26.9575 48.843 26.9035 48.8953 26.9185 49.0445C26.9425 49.2717 26.9493 49.501 26.9455 49.7289C26.9433 49.8697 27.0025 49.9081 27.1434 49.9018C27.5003 49.885 27.8579 49.8774 28.2156 49.8669C28.304 49.8641 28.3925 49.8669 28.5065 49.8669Z" fill="#0D5239"/>
<path d="M21.8878 48.245C22.0085 48.2108 22.106 48.1837 22.2334 48.1474C22.3069 48.3767 22.3804 48.5984 22.4493 48.8207C22.6375 49.432 22.8227 50.044 23.0124 50.6545C23.0544 50.7891 23.0994 50.8985 22.8849 50.9501C22.6765 51.0002 22.6878 50.8671 22.6548 50.7598C22.4156 49.9826 22.1764 49.2048 21.938 48.4269C21.9215 48.374 21.908 48.321 21.887 48.2436L21.8878 48.245Z" fill="#0D5239"/>
<path d="M32.3961 48.0241C32.462 48.0303 32.5078 48.0289 32.549 48.0401C32.6112 48.0575 32.6712 48.0833 32.7574 48.1154C32.456 49.0229 32.1577 49.9227 31.854 50.8372C31.7326 50.8023 31.6291 50.773 31.4986 50.7354C31.8 49.8258 32.0977 48.926 32.3961 48.0241Z" fill="#0D5239"/>
<path d="M37.621 29.2232C37.5392 32.7625 36.246 35.4585 33.4434 37.4582C32.1254 38.3985 30.6237 38.9526 28.9593 39.0606C25.5547 39.2809 22.9127 37.9963 20.9349 35.4641C19.8508 34.0757 19.185 32.5137 18.9676 30.8144C18.5072 27.22 19.7016 24.1671 22.597 21.7325C23.7809 20.7372 25.2159 20.1893 26.7933 19.9663C28.0739 19.7851 29.3499 19.7969 30.6132 20.0722C32.1464 20.4068 33.4419 21.1338 34.4893 22.2211C35.8831 23.6688 36.9327 25.3004 37.3481 27.2269C37.51 27.9769 37.5587 28.7485 37.621 29.2225V29.2232ZM33.8198 27.19C33.7223 27.1517 33.6781 27.1266 33.6294 27.1168C32.702 26.9196 31.7738 26.7237 30.8456 26.5279C30.3088 26.4142 29.7683 26.316 29.2367 26.1835C28.8116 26.0776 28.6961 25.9208 28.7134 25.5228C28.7261 25.2328 28.7734 24.9443 28.8033 24.655C28.8993 23.7245 28.9968 22.794 29.0845 21.8628C29.0905 21.7959 29.0433 21.7011 28.9863 21.6579C28.8768 21.5743 28.8011 21.6537 28.7359 21.7402C28.0596 22.6449 27.3893 23.5544 26.6981 24.4487C26.5189 24.6808 26.3 24.9066 26.0473 25.0642C25.554 25.3715 25.0067 25.276 24.4721 25.138C23.7194 24.9443 22.9712 24.7352 22.2147 24.5574C21.9125 24.4863 21.5932 24.4801 21.24 24.4403C21.2805 24.5553 21.2948 24.6146 21.3217 24.669C21.7319 25.5067 22.1397 26.3452 22.5551 27.1802C22.8392 27.7511 23.0124 28.3366 22.8722 28.9708C22.735 29.5898 22.3654 30.0895 21.92 30.5461C21.3607 31.1197 20.8906 31.7498 20.4925 32.428C20.4626 32.4781 20.4446 32.5346 20.4101 32.6134C20.4715 32.5994 20.4993 32.5959 20.5248 32.5869C21.4125 32.2879 22.3084 32.0063 23.1863 31.6829C23.9901 31.3873 24.3522 31.5219 24.6956 32.2593C25.3493 33.6637 26.0241 35.0591 26.6921 36.458C26.7146 36.5054 26.7513 36.5479 26.8001 36.6204C26.8488 36.5103 26.8983 36.4322 26.9178 36.3479C27.0355 35.8488 27.1659 35.3519 27.2559 34.8486C27.4816 33.5864 27.7162 32.3241 27.8932 31.0556C28.0229 30.1258 28.5005 29.5047 29.4384 29.1437C30.4355 28.7596 31.4139 28.3317 32.3901 27.903C32.8654 27.6946 33.3182 27.4416 33.8198 27.1893V27.19ZM26.0676 37.4945C26.0638 37.5203 26.0608 37.5467 26.0571 37.5725C26.2985 37.6715 26.5324 37.7921 26.7828 37.8646C27.609 38.1043 28.4382 38.0381 29.2449 37.7977C31.7243 37.0588 33.6016 35.591 34.9564 33.5571C36.0165 31.9652 36.3584 30.2059 36.105 28.3484C35.8936 26.7997 35.2825 25.4085 34.1992 24.2061C34.1444 24.1455 34.0965 24.08 34.0455 24.0173C34.0222 24.0319 33.999 24.0458 33.9758 24.0605C33.9758 24.1344 33.9758 24.2082 33.9758 24.2814C33.9758 25.3081 33.9743 26.3341 33.9788 27.3608C33.9825 28.2355 33.9285 29.1054 33.7546 29.9662C33.3955 31.7414 32.582 33.2999 31.2107 34.5956C30.1424 35.6049 28.8641 36.3172 27.4883 36.895C27.0145 37.0937 26.5406 37.2944 26.0676 37.4938V37.4945Z" fill="#0D5239"/>
<path d="M28.2275 44.3111C26.9567 44.3104 25.9604 43.3827 25.9589 42.1992C25.9574 41.0185 26.977 40.0748 28.2523 40.0775C29.5036 40.0803 30.515 41.0359 30.509 42.2111C30.503 43.3946 29.5066 44.3118 28.2275 44.3104V44.3111Z" fill="#0D5239"/>
<path d="M14.5269 27.664C14.6424 27.1496 14.6431 27.1538 15.1484 27.0827C15.9214 26.9739 16.6929 26.8596 17.4651 26.7467C17.4921 26.7425 17.5176 26.7265 17.5843 26.7C17.5094 26.6442 17.4584 26.6017 17.4029 26.5655C16.7356 26.134 16.0729 25.6956 15.3966 25.2774C15.2047 25.1589 15.1304 25.0453 15.2212 24.8453C15.2519 24.777 15.2617 24.7003 15.2886 24.5999C16.3915 24.8369 17.4816 25.0704 18.5882 25.3081C18.556 25.4454 18.5297 25.5583 18.496 25.7033C17.6323 25.5067 16.7851 25.3144 15.9379 25.122C15.9304 25.1304 15.9229 25.1394 15.9154 25.1478C15.9597 25.1826 16.0016 25.2217 16.0489 25.253C16.7199 25.6921 17.3901 26.1313 18.0634 26.5662C18.1759 26.6387 18.2538 26.7035 18.2186 26.8492C18.1819 27.0039 18.0642 27.0109 17.9352 27.0297C17.076 27.1552 16.2176 27.2841 15.3524 27.457C16.2003 27.6284 17.0483 27.7999 17.9195 27.9762C17.8917 28.1107 17.8692 28.223 17.8385 28.3742C16.7296 28.1365 15.635 27.9016 14.5277 27.664H14.5269Z" fill="#0D5239"/>
<path d="M21.3105 40.6303C21.8661 39.9995 22.4224 39.3694 22.9892 38.7268C23.1061 38.8174 23.2006 38.8913 23.3138 38.9798C22.585 39.7813 21.8698 40.5682 21.1396 41.3719C21.0129 41.2743 20.8862 41.199 20.7932 41.0966C20.7512 41.0506 20.7542 40.9439 20.7774 40.877C21.0361 40.1326 21.303 39.391 21.5677 38.6487C21.5924 38.5783 21.6164 38.5079 21.6621 38.3762C21.2528 38.5762 20.9011 38.7477 20.5503 38.9205C20.1027 39.1408 19.6506 39.3548 19.2105 39.5883C19.0396 39.6789 18.9174 39.6796 18.7906 39.5381C18.7344 39.4753 18.6587 39.4286 18.568 39.3555C19.2945 38.556 20.0135 37.7649 20.7437 36.9606C20.8539 37.0484 20.9469 37.123 21.0638 37.2171C20.4723 37.8492 19.892 38.4689 19.3125 39.0885C19.3192 39.0997 19.3252 39.1115 19.332 39.1227C19.3927 39.0962 19.4549 39.0718 19.5141 39.0425C20.2526 38.6815 20.9919 38.3211 21.7296 37.9573C21.8331 37.9064 21.9118 37.875 22.0287 37.9601C22.157 38.0535 22.1277 38.1392 22.0895 38.2479C21.8368 38.9644 21.5872 39.6817 21.3367 40.3996C21.312 40.47 21.291 40.5411 21.2678 40.6122C21.2813 40.6184 21.2955 40.6247 21.309 40.631L21.3105 40.6303Z" fill="#0D5239"/>
<path d="M33.3767 19.976C33.1443 19.9259 32.9884 19.8436 32.9441 19.5711C32.8107 18.7368 32.6352 17.9087 32.4755 17.0779C32.471 17.0542 32.4598 17.0312 32.4336 16.9532C32.2596 17.3267 32.1059 17.6536 31.9545 17.9812C31.7895 18.3374 31.6216 18.6922 31.4656 19.0518C31.4049 19.1905 31.3239 19.1815 31.2047 19.1278C31.1005 19.0811 31.0001 19.0609 31.072 18.9075C31.4836 18.0321 31.8855 17.1532 32.2911 16.275C32.3054 16.2443 32.3271 16.2164 32.3436 16.1892C32.6862 16.2436 32.7215 16.275 32.7769 16.5635C32.9366 17.3937 33.0963 18.2238 33.2568 19.0539C33.2628 19.0846 33.274 19.1145 33.3287 19.155C33.6646 18.4287 34.0005 17.7024 34.3439 16.9601C34.4316 16.9915 34.5051 17.0222 34.5808 17.0445C34.6925 17.0772 34.7135 17.1316 34.6663 17.2326C34.2472 18.1353 33.8326 19.0393 33.415 19.9433C33.4097 19.9544 33.3932 19.9614 33.376 19.976H33.3767Z" fill="#0D5239"/>
<path d="M25.0907 15.9927C25.56 15.9571 26.0181 15.8826 26.4732 15.8986C27.0137 15.9181 27.3736 16.2331 27.579 16.6883C27.759 17.0856 27.8054 17.5059 27.7477 17.9303C27.6765 18.4531 27.2364 18.8678 26.6329 18.9877C26.3427 19.0448 26.0466 19.0769 25.7519 19.118C25.6417 19.1334 25.554 19.132 25.5323 18.9877C25.3898 18.0642 25.2384 17.1413 25.0914 16.2185C25.0832 16.1648 25.0907 16.1084 25.0907 15.9927ZM26.1973 16.2018C26.0901 16.2136 25.9214 16.2366 25.7512 16.2506C25.5907 16.2638 25.5375 16.3335 25.563 16.4834C25.6642 17.0765 25.7512 17.6718 25.8576 18.2642C25.9536 18.7981 25.9611 18.7967 26.5384 18.6761C26.9792 18.5841 27.2619 18.3053 27.3309 17.8802C27.3983 17.4654 27.3181 17.0661 27.1232 16.6925C26.953 16.3649 26.6576 16.2011 26.198 16.2025L26.1973 16.2018Z" fill="#0D5239"/>
<path d="M40.0509 29.7536C39.8567 29.7299 39.6857 29.7187 39.5185 29.6881C38.9577 29.5828 38.5686 29.2078 38.4809 28.6997C38.3872 28.1553 38.6324 27.6577 39.1632 27.4151C39.7809 27.1329 40.4377 27.0841 41.093 27.2855C41.6965 27.4716 41.9822 27.9288 41.9477 28.5715C41.9207 29.0768 41.4971 29.5082 40.8673 29.6427C40.5937 29.7013 40.3103 29.7194 40.0509 29.7536ZM40.1011 29.3821C40.4107 29.3068 40.8006 29.2469 41.1597 29.1158C41.4843 28.9973 41.6223 28.7178 41.6073 28.3902C41.5923 28.0626 41.4274 27.8096 41.099 27.6946C40.4512 27.4681 39.8087 27.5232 39.2067 27.8305C38.9015 27.9867 38.7801 28.2676 38.8198 28.5917C38.8595 28.9158 39.0477 29.1493 39.3828 29.2496C39.5845 29.3103 39.8012 29.3291 40.1011 29.3821Z" fill="#0D5239"/>
<path d="M38.5281 24.5888C38.5641 24.6731 38.6159 24.7484 38.6234 24.8265C38.6286 24.8857 38.5964 24.9728 38.5476 25.007C38.0955 25.3241 38.1518 26.1187 38.6511 26.3773C38.9697 26.5418 39.3686 26.348 39.4106 25.9877C39.4473 25.6719 39.4406 25.352 39.4608 25.0349C39.4908 24.563 39.7405 24.2668 40.2008 24.2027C40.359 24.181 40.5479 24.2138 40.6934 24.2793C41.2714 24.5393 41.5533 25.3827 41.2279 25.8985C41.1177 26.0727 40.9265 26.203 40.7631 26.3627C40.5397 26.0567 40.5472 26.0204 40.7938 25.8281C41.012 25.658 41.057 25.4384 40.9895 25.1889C40.916 24.9157 40.7998 24.6717 40.4782 24.586C40.2525 24.5261 39.9834 24.6606 39.9084 24.8815C39.8627 25.0175 39.8582 25.1666 39.8439 25.3102C39.8124 25.6259 39.8117 25.9466 39.7502 26.2567C39.6887 26.5641 39.4391 26.7418 39.1197 26.8094C38.7861 26.8798 38.4952 26.783 38.2815 26.5355C37.9074 26.1013 37.7784 25.6148 37.9808 25.0774C38.0708 24.8376 38.253 24.6717 38.5296 24.5895L38.5281 24.5888Z" fill="#0D5239"/>
<path d="M17.9659 34.2492C18.436 33.9028 18.502 33.4449 18.1571 32.9904C18.0124 32.7995 17.8107 32.7179 17.6038 32.7667C17.3317 32.8308 17.2065 32.9486 17.1862 33.2135C17.1607 33.5508 17.1772 33.891 17.145 34.2276C17.1022 34.68 16.8698 34.9365 16.48 35.0124C16.1096 35.0849 15.734 34.9218 15.5001 34.5685C15.2459 34.1837 15.1469 33.776 15.3606 33.3438C15.4641 33.134 15.635 32.9897 15.8929 32.8998C15.9297 32.9911 15.9761 33.065 15.9836 33.1424C15.9896 33.2002 15.9642 33.2874 15.9184 33.318C15.4836 33.6136 15.5196 34.3168 15.9889 34.5712C16.3218 34.7518 16.7206 34.5559 16.7536 34.1809C16.7761 33.9265 16.7484 33.6679 16.7634 33.4128C16.7746 33.2351 16.7941 33.0504 16.8563 32.8838C17.0595 32.3415 17.8092 32.1798 18.2441 32.5862C18.6782 32.9911 18.8131 33.4881 18.6602 34.0394C18.5882 34.2994 18.403 34.4869 18.0941 34.5928C18.0484 34.4716 18.0064 34.3587 17.9652 34.2499L17.9659 34.2492Z" fill="#0D5239"/>
<path d="M18.5087 23.6123C18.6797 23.2575 18.6774 23.268 18.9863 23.3126C19.1033 23.3293 19.2427 23.3098 19.3514 23.2638C19.6708 23.1293 19.853 22.8784 19.9385 22.5696C19.9955 22.3654 19.94 22.1821 19.7481 22.0524C19.5531 21.9207 19.3447 21.9081 19.1423 22.0308C18.9676 22.136 18.8086 22.2636 18.6355 22.3709C18.4315 22.4971 18.2328 22.6428 18.0087 22.7257C17.4494 22.9327 16.9021 22.5717 16.8916 22.0113C16.8796 21.3526 17.5086 20.7302 18.1661 20.7644C18.3153 20.772 18.4615 20.8313 18.634 20.8724C18.568 20.9721 18.523 21.0348 18.4833 21.1003C18.4315 21.1846 18.3768 21.2097 18.2673 21.1637C18.0184 21.0592 17.7823 21.1052 17.5866 21.2787C17.3639 21.476 17.196 21.7109 17.2484 22.0113C17.3039 22.3249 17.6563 22.4866 17.9719 22.3431C18.1504 22.2615 18.3041 22.1347 18.472 22.0329C18.7014 21.8935 18.9219 21.7332 19.1693 21.6293C19.4886 21.4948 19.799 21.568 20.0577 21.7896C20.3066 22.0029 20.3786 22.272 20.2886 22.5675C20.1177 23.1314 19.7758 23.5579 19.119 23.6667C18.9353 23.6973 18.7344 23.6346 18.508 23.6116L18.5087 23.6123Z" fill="#0D5239"/>
<path d="M36.3764 21.3728C36.4521 21.4718 36.5204 21.561 36.5856 21.6468C36.096 22.157 36.4431 22.6846 36.8038 22.9501C36.9889 23.0868 37.2274 23.0937 37.4095 22.9829C37.6112 22.8602 37.6982 22.6846 37.6487 22.465C37.5632 22.0873 37.438 21.7151 37.3841 21.3331C37.3226 20.8968 37.597 20.5748 38.0566 20.4946C38.1818 20.473 38.325 20.4904 38.4494 20.5232C39.035 20.6779 39.4923 21.391 39.3371 21.9381C39.2854 22.1207 39.1429 22.281 39.014 22.4999C38.8925 22.3431 38.8183 22.2469 38.7471 22.1542C39.1392 21.7025 39.0702 21.2439 38.5829 20.9372C38.3984 20.8215 38.214 20.8076 38.0168 20.9072C37.8204 21.0069 37.7492 21.1686 37.7739 21.3596C37.7972 21.5366 37.8564 21.7095 37.8939 21.8851C37.9486 22.1416 38.0416 22.3981 38.0423 22.6553C38.0453 23.2317 37.3893 23.59 36.8277 23.3426C36.2887 23.1049 35.9116 22.4406 36.0038 21.8914C36.0405 21.6732 36.147 21.5185 36.3757 21.3721L36.3764 21.3728Z" fill="#0D5239"/>
<path d="M28.5154 18.8323C28.6114 17.7631 28.7044 16.7371 28.7981 15.6937C29.5088 15.7487 30.1904 15.8017 30.8996 15.8568C30.8951 15.9537 30.8906 16.0464 30.8846 16.169C30.593 16.1509 30.3133 16.1363 30.0337 16.1168C29.811 16.1007 29.5876 16.0854 29.3664 16.0582C29.2412 16.0429 29.191 16.0728 29.1827 16.1948C29.1655 16.4436 29.1362 16.6918 29.1055 16.9392C29.0905 17.0591 29.1437 17.0946 29.2674 17.1016C29.6393 17.1232 30.0104 17.1553 30.3815 17.1839C30.4768 17.1915 30.5847 17.1804 30.5727 17.3233C30.5615 17.4571 30.5112 17.5219 30.35 17.5059C30.0172 17.4724 29.6813 17.4578 29.3477 17.4264C29.0777 17.4006 29.0687 17.4055 29.0515 17.6481C29.035 17.876 29.0185 18.1046 28.984 18.3304C28.9608 18.4831 28.978 18.5521 29.176 18.5618C29.6655 18.5862 30.1529 18.6392 30.6529 18.6817V18.9975C29.9497 18.9431 29.2517 18.8887 28.5154 18.8316V18.8323Z" fill="#0D5239"/>
<path d="M16.5302 36.6107C16.456 36.5033 16.3885 36.4057 16.309 36.2914C16.5572 36.1458 16.7956 36.0064 17.034 35.8656C17.3931 35.6544 17.762 35.4557 18.1084 35.2278C18.9878 34.6486 19.7181 35.1407 20.0105 35.814C20.2196 36.2956 20.0764 36.741 19.6034 37.0303C18.9556 37.4255 18.2958 37.8039 17.6188 38.2019C17.5431 38.0946 17.4726 37.9949 17.3939 37.8841C18.0417 37.5021 18.6714 37.1327 19.2997 36.7605C19.7878 36.4713 19.868 36.0858 19.5344 35.6509C19.2772 35.3156 18.9069 35.2369 18.5162 35.4578C17.9247 35.7938 17.3422 36.1437 16.7551 36.4873C16.6869 36.527 16.6172 36.5633 16.5302 36.6107Z" fill="#0D5239"/>
<path d="M23.6054 16.4471C23.9466 17.1072 24.2907 17.7512 24.6131 18.4043C24.835 18.8546 24.706 19.302 24.2892 19.6122C23.9953 19.8304 23.6579 19.9642 23.2793 19.9398C22.9052 19.9161 22.6135 19.7335 22.4456 19.4191C22.1007 18.7751 21.7693 18.1248 21.4335 17.4759C21.4245 17.4585 21.4275 17.4355 21.4237 17.4041C21.5279 17.3567 21.6336 17.3093 21.7663 17.2494C21.887 17.4794 22.0033 17.6996 22.1187 17.9213C22.3421 18.3513 22.5581 18.7842 22.7897 19.2107C22.9577 19.5195 23.2126 19.6387 23.5552 19.5955C23.9121 19.5509 24.2577 19.3139 24.2914 19.0212C24.3132 18.8351 24.257 18.6225 24.1737 18.4475C23.9211 17.9164 23.6362 17.3985 23.367 16.8737C23.2081 16.5642 23.2111 16.5635 23.6069 16.4464L23.6054 16.4471Z" fill="#0D5239"/>
<path d="M37.6015 34.0875C38.6024 34.5915 39.5823 35.0849 40.5787 35.5861C40.2428 36.1646 39.9181 36.7229 39.5808 37.3042C39.4841 37.261 39.3941 37.2212 39.2824 37.1718C39.5493 36.7089 39.8087 36.2594 40.0853 35.7805C39.7555 35.6133 39.4338 35.4502 39.0874 35.2745C38.8468 35.6837 38.6166 36.0754 38.3789 36.4796C38.28 36.4294 38.1915 36.3855 38.0888 36.334C38.3212 35.9318 38.5469 35.5436 38.7883 35.1261C38.4464 34.9532 38.118 34.7824 37.7822 34.6263C37.7499 34.611 37.642 34.6765 37.6112 34.7274C37.3803 35.1072 37.1606 35.4927 36.9372 35.8753C36.92 35.9053 36.899 35.9332 36.869 35.9785C36.7775 35.9283 36.692 35.8816 36.5901 35.8251C36.9297 35.2418 37.2618 34.6723 37.6022 34.0875H37.6015Z" fill="#0D5239"/>
<path d="M40.5517 32.5548C40.6034 32.5499 40.6394 32.5444 40.6754 32.5437C41.0105 32.5353 41.2714 32.4154 41.3876 32.1066C41.5113 31.7756 41.4821 31.4661 41.1919 31.2103C40.7908 30.8569 39.6273 30.6869 39.1362 30.9127C38.804 31.066 38.6826 31.3309 38.6781 31.662C38.6736 31.9693 38.8288 32.1722 39.1227 32.2962C39.1827 32.3213 39.2404 32.3513 39.3056 32.382C39.2854 32.4963 39.2659 32.6036 39.2404 32.7451C38.9367 32.6866 38.7006 32.5527 38.5296 32.3234C37.9853 31.5937 38.5102 30.5175 39.4646 30.4255C39.9736 30.3767 40.4782 30.4422 40.9543 30.6206C41.7595 30.9224 42.0511 31.7226 41.6268 32.4259C41.4041 32.7939 40.9745 32.9849 40.4947 32.9166C40.5127 32.8043 40.5314 32.6907 40.5539 32.5555L40.5517 32.5548Z" fill="#0D5239"/>
<path d="M36.5886 40.426C36.3752 40.6068 36.158 40.6417 35.9371 40.5306C35.5375 40.3292 35.1386 40.1277 34.7382 39.927C34.6813 39.8984 34.622 39.8747 34.5171 39.828C34.5576 40.1633 34.5913 40.4602 34.6288 40.7571C34.661 41.0108 34.7322 41.2673 34.7135 41.5176C34.7045 41.6347 34.5231 41.7406 34.4196 41.8521C34.3964 41.8417 34.3731 41.8312 34.3499 41.8207C34.3244 41.6116 34.2951 41.4025 34.2727 41.1934C34.2247 40.732 34.1872 40.2692 34.1295 39.8085C34.1137 39.6844 34.0635 39.5548 33.993 39.4482C33.8176 39.1833 33.6219 38.931 33.4217 38.6564C33.5327 38.5825 33.6324 38.5156 33.7576 38.4319C33.9533 38.701 34.1295 38.9637 34.3304 39.2098C34.4248 39.3262 34.5501 39.4363 34.6873 39.5046C35.2518 39.7862 35.8254 40.0511 36.3959 40.3229C36.4604 40.3536 36.5211 40.3898 36.5878 40.426H36.5886Z" fill="#0D5239"/>
<path d="M37.7949 19.4164C37.7214 19.4923 37.6585 19.5578 37.5812 19.6387C37.3068 19.4129 37.0414 19.1954 36.7603 18.964C36.069 19.6708 35.395 20.3608 34.703 21.0689C34.5928 20.9748 34.5028 20.8975 34.4009 20.8111C35.0884 20.1043 35.7661 19.4066 36.4536 18.6998C36.1762 18.4642 35.9191 18.2454 35.6492 18.0161C35.7174 17.9429 35.7789 17.876 35.8606 17.7889C36.5069 18.3325 37.1441 18.8692 37.7949 19.417V19.4164Z" fill="#0D5239"/>
<path d="M37.7559 38.9212C36.9964 38.2835 36.2557 37.6624 35.4955 37.024C35.5854 36.9257 35.6679 36.8351 35.7616 36.7333C36.5264 37.3732 37.2723 37.9977 38.0333 38.6341C38.2815 38.3817 38.5161 38.1427 38.7666 37.8883C38.843 37.9489 38.915 38.0054 39.0125 38.0827C38.4314 38.6815 37.8564 39.2739 37.2671 39.8817C37.1801 39.8071 37.1119 39.7486 37.0309 39.6789C37.2723 39.4266 37.504 39.1847 37.7559 38.9212Z" fill="#0D5239"/>
<path d="M19.7683 18.9765C20.4626 19.6777 21.1426 20.365 21.8383 21.0682C21.7393 21.1526 21.6479 21.2299 21.5354 21.3254C20.8449 20.6312 20.1604 19.9419 19.4624 19.24C19.1903 19.47 18.9323 19.6882 18.6437 19.9321C18.5785 19.8624 18.517 19.7976 18.4308 19.7056C19.071 19.1543 19.7016 18.612 20.3478 18.0565C20.4258 18.1367 20.4888 18.2015 20.5668 18.2823C20.3006 18.5144 20.042 18.7389 19.7683 18.9765Z" fill="#0D5239"/>
<path d="M17.8572 29.8435C17.9487 30.4757 18.0364 31.0841 18.1294 31.731C17.0078 31.8704 15.8944 32.0091 14.7676 32.1499C14.7466 32.0188 14.7286 31.9045 14.7053 31.7574C15.7085 31.6313 16.7034 31.5065 17.7223 31.379C17.6518 30.8716 17.5858 30.3941 17.5168 29.8999C17.6263 29.8825 17.726 29.8658 17.8572 29.8449V29.8435Z" fill="#0D5239"/>
<path d="M37.8339 33.4505C37.8841 33.3125 37.9239 33.2037 37.9718 33.072C39.0447 33.4121 40.1018 33.7481 41.1822 34.091C41.1372 34.2137 41.0982 34.3217 41.045 34.4674C39.9751 34.1286 38.9195 33.7941 37.8339 33.4505Z" fill="#0D5239"/>
<path d="M17.8925 29.0099V29.3779H14.5322V29.0099H17.8925Z" fill="#0D5239"/>
</g>
</svg>
