<svg width="40" height="32" viewBox="0 0 40 32" fill="none" xmlns="http://www.w3.org/2000/svg">
<g id="Vector">
<path d="M7.59696 10.3854C7.59696 7.51799 5.25473 5.19272 2.36635 5.19272C5.25473 5.19272 7.59696 2.86745 7.59696 0C7.59696 2.86745 9.9392 5.19272 12.8276 5.19272C9.9392 5.19272 7.59696 7.51799 7.59696 10.3854Z" fill="#00913E"/>
<path d="M38.5248 19.7121C38.0776 20.3482 37.5143 20.6456 36.7431 20.4436C35.9575 20.2372 35.5619 19.6894 35.4587 18.9095C35.4272 18.6747 35.3942 18.4399 35.3612 18.2051C35.0717 16.1132 34.7836 14.0228 34.4954 11.9309C34.3937 11.1952 33.998 10.7014 33.2641 10.5306C32.5589 10.3669 32.0027 10.633 31.5813 11.2037C31.4537 11.3759 31.3232 11.5452 31.1928 11.7146C28.8864 14.7101 26.5886 17.7127 24.265 20.6955C23.9984 21.0384 23.6429 21.3927 23.2515 21.5422C22.2696 21.9164 21.3422 21.2576 21.1759 20.1134C20.8849 18.1183 20.614 16.1203 20.3531 14.121C20.2514 13.3326 19.9804 12.6865 19.1333 12.4659C18.2918 12.2468 17.7056 12.6324 17.2583 13.307C17.1924 13.4066 17.115 13.4977 17.0448 13.5916C14.5606 16.8945 12.0736 20.196 9.59518 23.5031L10.9039 13.7182C11.02 12.8502 10.4051 12.0518 9.53067 11.9366L7.20277 11.6292C4.57671 11.2834 2.16423 13.1163 1.81591 15.7247L0.0140763 29.1811C-0.102032 30.0492 0.512913 30.8475 1.38731 30.9628L3.71521 31.2702C6.34127 31.616 8.75375 29.7831 9.10208 27.1746L9.44753 24.5918C9.67258 24.2915 9.89907 23.9927 10.1227 23.6924C10.6158 23.035 11.1662 22.5682 12.0507 22.8158C12.8921 23.052 13.1515 23.7024 13.2533 24.4865C13.5056 26.4389 13.7866 28.3871 14.0503 30.3395C14.1521 31.098 14.4373 31.7213 15.2501 31.9361C16.0829 32.1567 16.6678 31.7853 17.1537 31.1378C18.137 29.8243 19.1419 28.5279 20.1395 27.2258C21.6002 25.319 23.0609 23.4135 24.5244 21.5094C24.9559 20.9488 25.5207 20.7083 26.2245 20.8805C26.8996 21.0455 27.2766 21.4981 27.4071 22.164C27.4529 22.396 27.4874 22.6308 27.5189 22.8656C27.8127 25.0045 28.108 27.1419 28.3976 29.2807C28.4979 30.0264 28.8276 30.5885 29.6088 30.7792C30.3485 30.9599 30.909 30.6753 31.3519 30.0876C33.8848 26.7278 36.4248 23.3722 38.9491 20.0053C39.0667 19.8487 39.0595 19.6011 39.1111 19.3962C38.9119 19.4987 38.6381 19.5499 38.5248 19.7107V19.7121Z" fill="#00913E"/>
</g>
</svg>
