<svg width="90" height="74" viewBox="0 0 90 74" fill="none" xmlns="http://www.w3.org/2000/svg">
<g id="Vector">
<path d="M17.3861 24.1506C17.3861 17.5882 12.0258 12.2667 5.41554 12.2667C12.0258 12.2667 17.3861 6.94516 17.3861 0.382812C17.3861 6.94516 22.7465 12.2667 29.3567 12.2667C22.7465 12.2667 17.3861 17.5882 17.3861 24.1506Z" fill="#E5FF2D"/>
<path d="M88.1666 45.4953C87.1431 46.9511 85.8538 47.6317 84.0889 47.1693C82.2912 46.697 81.3857 45.4432 81.1495 43.6585C81.0774 43.1211 81.0019 42.5838 80.9265 42.0464C80.2638 37.259 79.6044 32.4748 78.945 27.6874C78.7121 26.0037 77.8067 24.8736 76.1271 24.4827C74.5131 24.1082 73.2402 24.7172 72.2757 26.0232C71.9838 26.4173 71.6852 26.8048 71.3867 27.1924C66.1084 34.0478 60.8497 40.9196 55.532 47.7457C54.9218 48.5306 54.1082 49.3415 53.2127 49.6835C50.9655 50.54 48.843 49.0321 48.4625 46.4137C47.7965 41.8477 47.1765 37.2753 46.5795 32.6995C46.3465 30.8953 45.7265 29.4167 43.7877 28.9119C41.8621 28.4104 40.5203 29.293 39.4968 30.8367C39.3459 31.0646 39.1688 31.2731 39.008 31.488C33.3229 39.0469 27.6312 46.6026 21.9592 54.1713L24.9543 31.7779C25.22 29.7912 23.8127 27.9642 21.8116 27.7004L16.484 26.997C10.4741 26.2056 4.95299 30.4003 4.15582 36.3699L0.0322146 67.1657C-0.233507 69.1523 1.17383 70.9793 3.17495 71.2431L8.50251 71.9466C14.5124 72.738 20.0335 68.5433 20.8307 62.5737L21.6213 56.6627C22.1363 55.9755 22.6547 55.2916 23.1664 54.6044C24.2949 53.0998 25.5546 52.0316 27.5787 52.5983C29.5044 53.1389 30.0981 54.6272 30.3311 56.4217C30.9084 60.8899 31.5514 65.3484 32.155 69.8167C32.3879 71.5525 33.0408 72.979 34.9008 73.4708C36.8068 73.9756 38.1453 73.1255 39.2573 71.6437C41.5078 68.6377 43.8074 65.6708 46.0907 62.6909C49.4335 58.3269 52.7764 53.9661 56.1258 49.6086C57.1132 48.3254 58.4057 47.775 60.0165 48.1691C61.5616 48.5469 62.4244 49.5825 62.7229 51.1067C62.8279 51.6375 62.9066 52.1749 62.9788 52.7122C63.6513 57.6071 64.3271 62.4988 64.9897 67.3937C65.2194 69.1002 65.9739 70.3866 67.7618 70.823C69.4545 71.2366 70.7372 70.5853 71.7509 69.2402C77.5475 61.5511 83.3606 53.8717 89.1376 46.1662C89.4066 45.8079 89.3902 45.2413 89.5083 44.7723C89.0523 45.0068 88.4257 45.124 88.1666 45.492V45.4953Z" fill="#E5FF2D"/>
</g>
</svg>
